# xmcd
#
# Track frame offsets:
#	150
#	14023
#	28005
#	39483
#	58229
#	71033
#	86798
#	105359
#	124409
#	141019
#	159911
#	177526
#	200063
#
# Disc length: 2896 seconds
#
# Revision: 1
# Processed by: cddbd v1.5.2PL0 Copyright (c) Steve Scherf et al.
# Submitted via: audiograbber 1.83.01
#
DISCID=be0b4e0d
DTITLE=The Gallus Brothers - Hello Neighbor!
DYEAR=2008
DGENRE=Dance
TTITLE0=Georgia Black Bottom
TTITLE1=Pass the Jug
TTITLE2=Oh, Hohello Jeanette
TTITLE3=Cocaine
TTITLE4=Hello Neighbor Stomp
TTITLE5=Miss A Lil' Miss
TTITLE6=Take Me Back
TTITLE7=Colored Aristocracy
TTITLE8=Mighty Good LEader
TTITLE9=Sweet to Mama
TTITLE10=St. Louis Tickle
TTITLE11=The Last Word
TTITLE12=Surprise!
EXTD=
EXTT0=
EXTT1=
EXTT2=
EXTT3=
EXTT4=
EXTT5=
EXTT6=
EXTT7=
EXTT8=
EXTT9=
EXTT10=
EXTT11=
EXTT12=
PLAYORDER=
